<?xml version="1.0" standalone="no"?>
<!DOCTYPE svg PUBLIC "-//W3C//DTD SVG 20010904//EN"
 "http://www.w3.org/TR/2001/REC-SVG-20010904/DTD/svg10.dtd">
<svg version="1.0" xmlns="http://www.w3.org/2000/svg"
 width="1152.000000pt" height="1152.000000pt" viewBox="0 0 1152.000000 1152.000000"
 preserveAspectRatio="xMidYMid meet">
<metadata>
Created by potrace 1.11, written by Peter Selinger 2001-2013
</metadata>
<g transform="translate(0.000000,1152.000000) scale(0.100000,-0.100000)"
fill="#000000" stroke="none">
<path d="M1070 11510 c-25 -5 -57 -11 -72 -14 -16 -3 -40 -8 -54 -11 -113 -24
-321 -121 -430 -203 -200 -149 -335 -322 -428 -552 -27 -65 -54 -159 -63 -215
-3 -16 -9 -50 -13 -75 -5 -25 -9 -2098 -9 -4690 1 -4459 2 -4649 19 -4733 78
-375 302 -686 621 -861 130 -71 221 -103 389 -136 92 -19 239 -19 4765 -17
l4670 2 100 27 c55 16 125 38 155 49 404 159 690 499 778 929 20 94 20 164 20
4750 0 4470 -1 4658 -18 4743 -78 375 -302 686 -621 861 -130 71 -222 104
-389 136 -92 18 -245 19 -4735 18 -2552 0 -4660 -4 -4685 -8z"/>
</g>
</svg>
